HIERARCHY
ROOT Hips
{
	OFFSET 0.000000 0.000000 0.000000
	CHANNELS 6 Xposition Yposition Zposition Xrotation Yrotation Zrotation
	JOINT LeftUpLeg_virtual
	{
		OFFSET 0.000000 0.000000 0.000000
		CHANNELS 3 Xrotation Yrotation Zrotation
		JOINT LeftUpLeg
		{
			OFFSET 15.427100 -6.655098 0.678600
			CHANNELS 3 Xrotation Yrotation Zrotation
			JOINT LeftLeg
			{
				OFFSET 4.081073 -39.591068 13.024000
				CHANNELS 3 Xrotation Yrotation Zrotation
				JOINT LeftFoot
				{
					OFFSET -4.081074 -37.707932 -15.979700
					CHANNELS 3 Xrotation Yrotation Zrotation
					JOINT LeftToeBase
					{
						OFFSET 5.346399 -15.068900 20.645000
						CHANNELS 3 Xrotation Yrotation Zrotation
						JOINT LeftToe_End
						{
							OFFSET 2.754700 0.931300 11.300900
							CHANNELS 3 Xrotation Yrotation Zrotation
							End Site
							{
								OFFSET 0 0 0
							}
						}
					}
				}
			}
		}
	}
	JOINT RightUpLeg_virtual
	{
		OFFSET 0.000000 0.000000 0.000000
		CHANNELS 3 Xrotation Yrotation Zrotation
		JOINT RightUpLeg
		{
			OFFSET -15.569500 -6.655098 0.678600
			CHANNELS 3 Xrotation Yrotation Zrotation
			JOINT RightLeg
			{
				OFFSET -4.081825 -39.591045 13.023800
				CHANNELS 3 Xrotation Yrotation Zrotation
				JOINT RightFoot
				{
					OFFSET 4.081824 -37.707954 -15.979600
					CHANNELS 3 Xrotation Yrotation Zrotation
					JOINT RightToeBase
					{
						OFFSET -5.346400 -15.068900 20.645000
						CHANNELS 3 Xrotation Yrotation Zrotation
						JOINT RightToe_End
						{
							OFFSET -2.754700 0.931300 11.300900
							CHANNELS 3 Xrotation Yrotation Zrotation
							End Site
							{
								OFFSET 0 0 0
							}
						}
					}
				}
			}
		}
	}
	JOINT Spine_virtual
	{
		OFFSET 0.000000 0.000000 0.000000
		CHANNELS 3 Xrotation Yrotation Zrotation
		JOINT Spine
		{
			OFFSET -0.279200 12.230698 -2.892100
			CHANNELS 3 Xrotation Yrotation Zrotation
			JOINT Spine1
			{
				OFFSET -0.232667 10.192268 -1.242267
				CHANNELS 3 Xrotation Yrotation Zrotation
				JOINT Spine1_split
				{
					OFFSET -0.232667 10.192268 -1.242267
					CHANNELS 3 Xrotation Yrotation Zrotation
					JOINT Spine2
					{
						OFFSET -0.232667 10.192268 -1.242267
						CHANNELS 3 Xrotation Yrotation Zrotation
						JOINT Neck_virtual
						{
							OFFSET 0.000000 0.000000 0.000000
							CHANNELS 3 Xrotation Yrotation Zrotation
							JOINT Neck
							{
								OFFSET -0.418800 17.814194 8.416900
								CHANNELS 3 Xrotation Yrotation Zrotation
								JOINT Head
								{
									OFFSET 0.000000 7.031097 3.806800
									CHANNELS 3 Xrotation Yrotation Zrotation
									JOINT HeadTop_End
									{
										OFFSET 0.000000 24.646606 12.978600
										CHANNELS 3 Xrotation Yrotation Zrotation
										End Site
										{
											OFFSET 0 0 0
										}
									}
								}
							}
						}
						JOINT LeftShoulder_virtual
						{
							OFFSET 0.000000 0.000000 0.000000
							CHANNELS 3 Xrotation Yrotation Zrotation
							JOINT LeftShoulder
							{
								OFFSET 8.476499 7.247704 -3.868750
								CHANNELS 3 Xrotation Yrotation Zrotation
								JOINT LeftShoulder_split
								{
									OFFSET 8.476499 7.247704 -3.868750
									CHANNELS 3 Xrotation Yrotation Zrotation
									JOINT LeftArm
									{
										OFFSET 9.308998 -2.777710 0.208600
										CHANNELS 3 Xrotation Yrotation Zrotation
										JOINT LeftForeArm
										{
											OFFSET 29.972298 0.000000 0.000000
											CHANNELS 3 Xrotation Yrotation Zrotation
											JOINT LeftHand
											{
												OFFSET 26.026505 0.000000 0.000000
												CHANNELS 3 Xrotation Yrotation Zrotation
												End Site
												{
													OFFSET 0 0 0
												}
											}
										}
									}
								}
							}
						}
						JOINT RightShoulder_virtual
						{
							OFFSET 0.000000 0.000000 0.000000
							CHANNELS 3 Xrotation Yrotation Zrotation
							JOINT RightShoulder
							{
								OFFSET -7.570500 7.247704 -3.868750
								CHANNELS 3 Xrotation Yrotation Zrotation
								JOINT RightShoulder_split
								{
									OFFSET -7.570500 7.247704 -3.868750
									CHANNELS 3 Xrotation Yrotation Zrotation
									JOINT RightArm
									{
										OFFSET -9.308998 -2.777710 0.208500
										CHANNELS 3 Xrotation Yrotation Zrotation
										JOINT RightForeArm
										{
											OFFSET -29.972300 0.000000 0.000000
											CHANNELS 3 Xrotation Yrotation Zrotation
											JOINT RightHand
											{
												OFFSET -26.026505 0.000000 0.000000
												CHANNELS 3 Xrotation Yrotation Zrotation
												End Site
												{
													OFFSET 0 0 0
												}
											}
										}
									}
								}
							}
						}
					}
				}
			}
		}
	}
}
MOTION
Frames: 11
Frame Time: 0.03333333
0.694350 73.174416 -1.630365 0.000000 0.000000 0.000000 4.151795 -50.015696 7.483623 -35.711569 11.987862 22.639719 54.063737 -12.255056 0.783890 -18.046313 -5.849838 -15.687703 -2.585036 -2.709728 1.033347 0.000000 0.000000 0.000000 3.791936 -47.723187 7.764878 -24.878464 -16.850370 -35.087399 51.946997 15.426406 -5.900866 -27.584735 -24.977409 27.281896 5.067600 10.600402 -20.898207 0.000000 0.000000 0.000000 2.363991 -44.171619 6.365236 8.826092 11.366452 -3.328763 -0.910204 1.571787 -0.678480 0.068005 0.372273 0.123226 0.000000 0.000000 0.000000 4.166778 3.018618 -0.005976 -4.686005 12.557995 1.592249 -17.972758 19.572631 -10.497742 0.000000 0.000000 0.000000 2.044231 2.136060 -1.240658 4.104411 7.577491 -3.382083 -1.616372 -7.323210 1.535754 -9.856514 6.411972 -45.885928 170.869067 -48.948786 169.830209 0.000000 0.000000 0.000000 4.560297 2.360100 -0.335967 -4.075683 3.540189 -21.641859 -3.182750 5.145460 5.395877 -46.893080 17.128890 64.338237 -141.673942 65.046214 135.971991 0.000000 0.000000 0.000000 
1.214593 73.038193 -1.861141 0.000000 0.000000 0.000000 4.989177 -54.547247 8.013558 -31.399083 11.346442 22.451865 54.761486 -11.418302 0.708631 -21.489561 -1.739791 -16.950933 -2.396410 -2.619246 0.706069 0.000000 0.000000 0.000000 4.710262 -52.317487 8.524784 -28.863997 -12.096888 -35.184859 52.790054 16.677826 -6.189086 -25.338769 -21.780792 28.128239 5.283836 10.178326 -21.392385 0.000000 0.000000 0.000000 4.136066 -48.469314 6.897061 9.170119 9.921964 -2.291292 -1.008047 1.042552 -0.213209 0.089228 0.396513 0.195481 0.000000 0.000000 0.000000 4.614986 2.582507 0.319967 -5.781997 13.110475 2.163133 -18.661593 27.282781 -11.470867 0.000000 0.000000 0.000000 2.213926 1.673707 -0.514041 3.781259 7.438594 -0.574220 1.231397 -6.663977 1.159104 -13.031307 12.778387 -42.631572 166.416343 -50.979880 165.976875 0.000000 0.000000 0.000000 4.570867 1.869926 -0.258122 -4.281592 3.749651 -19.841903 -2.129282 5.720014 5.149527 -47.696082 18.335392 70.304585 -146.370571 63.696152 140.478850 0.000000 0.000000 0.000000 
1.606547 72.774406 -2.320799 0.000000 0.000000 0.000000 5.479218 -58.150441 8.055495 -27.386521 10.152022 22.405052 55.760230 -10.315589 0.591364 -25.157089 2.113123 -17.162858 -2.057791 -2.381089 -0.004592 0.000000 0.000000 0.000000 5.001281 -56.275322 8.568411 -32.454894 -8.368117 -35.042292 53.478650 18.031486 -6.106336 -23.120489 -18.589866 29.179449 5.287383 9.801468 -21.708168 0.000000 0.000000 0.000000 5.701973 -52.203744 6.867263 9.347176 8.140217 -1.265528 -0.907911 0.210645 0.268589 0.112192 0.293670 0.252573 0.000000 0.000000 0.000000 5.185186 1.835043 0.842653 -6.988148 14.047275 2.741279 -17.670932 34.948446 -13.646516 0.000000 0.000000 0.000000 2.819722 0.814396 0.285659 3.325088 5.958346 2.632026 3.182842 -3.814951 0.547326 -19.893676 15.134096 -37.258706 157.092438 -59.257505 157.211694 0.000000 0.000000 0.000000 4.769181 0.966293 -0.230052 -3.873751 5.122378 -18.115666 -1.188213 4.973144 4.164820 -48.292613 20.809790 75.681023 -149.731871 63.647241 143.859794 0.000000 0.000000 0.000000 
1.850232 72.490952 -2.782495 0.000000 0.000000 0.000000 5.141939 -60.073133 7.293545 -24.674005 8.391608 22.675012 57.050610 -9.470104 0.599740 -27.685024 4.755423 -17.183569 -2.587746 -2.079904 -0.756386 0.000000 0.000000 0.000000 4.346825 -58.589130 7.580838 -34.705680 -6.416845 -34.667803 53.826638 18.905347 -5.588868 -21.998091 -16.276976 29.383651 5.876937 9.338177 -21.582933 0.000000 0.000000 0.000000 6.328823 -54.592667 5.998830 9.304489 5.952378 -0.423176 -0.589869 -0.819464 0.607558 0.190169 0.037715 0.270647 0.000000 0.000000 0.000000 5.670587 0.823411 1.328907 -7.949959 15.260091 3.317257 -14.033228 41.745645 -17.394545 0.000000 0.000000 0.000000 4.005145 -0.351696 0.871215 3.020342 3.206399 5.597182 3.544785 0.280309 -0.319772 -28.545531 12.408686 -31.567676 126.858743 -71.388789 127.227914 0.000000 0.000000 0.000000 5.244810 -0.246100 -0.258164 -3.035088 7.020129 -16.653319 -1.098370 3.513561 2.597158 -47.664011 23.842876 79.597802 -153.516698 63.754516 147.951241 0.000000 0.000000 0.000000 
1.943601 72.203255 -3.134245 0.000000 0.000000 0.000000 3.876279 -59.611104 5.754871 -23.759243 6.315157 22.980795 58.424311 -9.149919 0.811268 -28.418102 5.720613 -17.363046 -3.841013 -1.756189 -1.443367 0.000000 0.000000 0.000000 2.990841 -58.738998 5.822613 -34.979769 -6.507021 -34.293219 53.779055 18.861286 -4.769069 -22.151055 -15.465539 28.377496 6.808466 8.900329 -20.880780 0.000000 0.000000 0.000000 5.921956 -55.258826 4.589193 9.052641 3.662333 0.064282 -0.130860 -1.809383 0.639612 0.227124 -0.224852 0.187944 0.000000 0.000000 0.000000 5.980659 -0.252479 1.531009 -8.574671 16.425715 3.958228 -7.890465 46.512092 -22.423880 0.000000 0.000000 0.000000 5.482185 -1.612488 1.113790 2.875413 -0.261645 7.821305 2.350853 4.178516 -1.146267 -35.693944 5.669944 -27.884444 61.909169 -70.088034 61.803793 0.000000 0.000000 0.000000 5.942487 -1.509048 -0.419402 -1.936240 9.081658 -15.532680 -1.965403 1.924445 1.136836 -45.244215 26.872995 80.859235 -157.808147 63.072098 152.955120 0.000000 0.000000 0.000000 
1.930829 72.005821 -3.364761 0.000000 0.000000 0.000000 2.508886 -56.979494 4.271439 -24.574449 4.430625 22.934682 59.372758 -9.120303 1.040404 -27.818712 5.090683 -17.212874 -4.701156 -1.450778 -2.066021 0.000000 0.000000 0.000000 1.654260 -56.602030 4.149085 -33.167849 -8.391271 -34.187692 53.379414 17.933374 -3.894114 -23.107889 -16.133965 26.738637 7.450222 8.679424 -19.768191 0.000000 0.000000 0.000000 4.664066 -53.875340 3.192313 8.658070 1.769334 0.111835 0.364265 -2.450086 0.319692 0.139622 -0.356646 0.056733 0.000000 0.000000 0.000000 6.044795 -1.088389 1.324899 -8.906291 17.146153 4.735800 -0.469477 48.272779 -27.533247 0.000000 0.000000 0.000000 6.838523 -2.617863 0.925221 2.680591 -3.584661 9.008640 0.500267 6.994911 -2.451937 -39.964782 -2.254795 -27.402354 37.704895 -58.220683 36.461291 0.000000 0.000000 0.000000 6.726052 -2.484377 -0.734503 -0.789306 11.224490 -14.897862 -3.386440 0.094629 0.824781 -41.114040 29.672585 78.863434 -161.776090 61.526084 157.993914 0.000000 0.000000 0.000000 
1.801119 71.937164 -3.412066 0.000000 0.000000 0.000000 1.537909 -52.823337 3.470151 -26.836242 2.974551 22.253649 59.617108 -9.212738 1.340133 -26.313019 3.202687 -16.671568 -4.294066 -1.183468 -2.613085 0.000000 0.000000 0.000000 1.015162 -52.503347 3.313281 -29.763270 -11.387765 -34.323552 52.592187 16.629320 -3.346978 -24.481626 -17.785970 25.646083 7.321273 8.802602 -18.670706 0.000000 0.000000 0.000000 2.963717 -50.608980 2.286102 8.249102 0.853367 -0.323514 0.863209 -2.529085 -0.234722 0.071484 -0.393996 -0.078005 0.000000 0.000000 0.000000 5.912133 -1.374103 0.711341 -9.308767 17.184957 5.646898 5.621373 46.819700 -30.604121 0.000000 0.000000 0.000000 7.814178 -3.007899 0.384574 2.108446 -6.030962 8.782203 -0.327729 8.317272 -3.638633 -40.681700 -8.733509 -29.785536 33.796534 -54.194245 31.091192 0.000000 0.000000 0.000000 7.403187 -2.844987 -1.129495 0.192291 13.075477 -14.863260 -5.113579 -1.188660 1.791637 -36.089244 32.020309 73.460802 -164.333382 60.122248 162.022073 0.000000 0.000000 0.000000 
1.652412 71.920494 -3.236895 0.000000 0.000000 0.000000 1.135280 -48.055623 3.488641 -30.046306 2.179971 20.812613 59.138906 -9.400690 1.649637 -24.221837 0.456397 -15.833524 -2.657652 -0.993043 -2.995904 0.000000 0.000000 0.000000 0.997377 -47.190658 3.280004 -25.636512 -14.837765 -34.773053 51.538340 15.486899 -3.285873 -26.051537 -19.920168 25.816467 6.333063 9.260341 -17.896853 0.000000 0.000000 0.000000 1.255235 -46.052253 2.091335 8.015691 1.354684 -1.079247 1.422678 -1.926677 -0.859565 0.065583 -0.398074 -0.080178 0.000000 0.000000 0.000000 5.715928 -0.908721 -0.081027 -9.961785 16.495061 6.574544 8.359960 42.382174 -30.575584 0.000000 0.000000 0.000000 8.271053 -2.589636 -0.335286 1.052039 -7.341567 7.408068 -0.617064 8.024999 -4.659267 -37.227888 -12.334138 -33.798064 38.982021 -61.092866 35.169375 0.000000 0.000000 0.000000 7.874412 -2.399992 -1.531248 0.913808 14.699242 -15.567857 -6.223467 -1.571207 3.781826 -31.627710 33.572852 65.139364 -164.753739 61.038819 164.213047 0.000000 0.000000 0.000000 
1.526130 71.948463 -2.895254 0.000000 0.000000 0.000000 1.078445 -43.475377 4.138094 -33.853751 2.243522 19.067662 58.324659 -9.707180 1.863358 -21.543918 -2.935651 -14.836544 -1.003864 -0.909566 -2.899253 0.000000 0.000000 0.000000 1.160278 -41.667771 3.754105 -21.448942 -18.369640 -35.275974 50.386975 14.651809 -3.674424 -27.999438 -22.293463 26.905609 5.295079 9.853796 -17.608919 0.000000 0.000000 0.000000 -0.326497 -40.892708 2.380599 8.115304 3.430329 -1.894161 2.017760 -0.690119 -1.331959 0.101359 -0.374956 0.079036 0.000000 0.000000 0.000000 5.531833 0.279314 -0.834425 -10.815389 15.287217 7.275675 7.682708 35.490906 -28.158708 0.000000 0.000000 0.000000 8.230568 -1.359584 -1.038323 -0.190561 -7.556902 5.313537 -0.174744 6.452284 -4.825312 -30.303213 -13.471237 -38.602180 59.865399 -73.246464 55.571980 0.000000 0.000000 0.000000 8.036174 -1.159738 -1.803027 1.145378 16.191904 -16.677222 -7.169089 -1.104694 5.301568 -29.072813 34.330122 55.356952 -161.848928 66.568998 163.184257 0.000000 0.000000 0.000000 
1.415126 71.865227 -2.552959 0.000000 0.000000 0.000000 1.065500 -39.517805 4.977265 -37.908643 3.013361 17.499626 57.684404 -10.180754 2.005702 -18.143385 -6.777398 -13.764924 -0.477097 -0.926638 -2.225117 0.000000 0.000000 0.000000 1.149223 -36.750963 4.341980 -17.786830 -21.657454 -35.660909 49.396136 14.189826 -4.347414 -30.413910 -24.651041 28.253863 4.744531 10.426266 -17.802977 0.000000 0.000000 0.000000 -1.597761 -36.177302 2.812957 8.591129 6.856842 -2.582804 2.724343 0.984393 -1.559904 0.158536 -0.332624 0.242211 0.000000 0.000000 0.000000 5.492079 1.997659 -1.368248 -11.692024 13.784657 7.517146 4.366646 26.598621 -25.010022 0.000000 0.000000 0.000000 7.769904 0.457714 -1.551598 -1.266392 -7.314407 2.750114 0.820622 3.515865 -3.591871 -20.266075 -13.312548 -43.720037 115.731518 -78.919762 111.604253 0.000000 0.000000 0.000000 7.894870 0.703794 -1.850868 0.923014 17.436226 -17.791355 -8.105514 -0.462655 5.351098 -29.519835 34.314362 45.895678 -145.577791 78.106847 148.723244 0.000000 0.000000 0.000000 
1.301417 71.683426 -2.105967 0.000000 0.000000 0.000000 1.038073 -36.540136 5.659854 -41.663867 4.189738 16.494897 57.649310 -10.568100 2.056786 -14.640533 -10.453651 -12.224500 -0.737577 -1.074644 -1.398388 0.000000 0.000000 0.000000 0.942947 -33.110394 4.804977 -15.098461 -24.363025 -35.952354 48.846115 14.027143 -5.038754 -32.691177 -26.725830 29.515816 4.326138 10.915979 -18.210654 0.000000 0.000000 0.000000 -2.550702 -32.346526 3.199354 9.338462 11.029926 -3.007193 3.448741 2.781535 -1.587813 0.162452 -0.189554 0.338750 0.000000 0.000000 0.000000 5.569052 3.905584 -1.580740 -12.110548 12.239178 7.182484 -0.344654 16.655126 -22.722443 0.000000 0.000000 0.000000 7.127042 2.442870 -1.871940 -1.794628 -6.680146 0.085067 1.370684 -0.221632 -1.480839 -8.713602 -13.527876 -48.785552 155.357120 -75.899070 151.999166 0.000000 0.000000 0.000000 7.501691 2.813283 -1.682248 0.358610 18.485282 -18.560153 -8.592988 -0.125313 3.586007 -33.071926 33.346988 39.284909 -32.373034 79.553658 36.849308 0.000000 0.000000 0.000000 
